<svg xmlns="http://www.w3.org/2000/svg" xmlns:xlink="http://www.w3.org/1999/xlink" version="1.1" id="Layer_1" x="0px" y="0px" viewBox="0 0 512 512" style="enable-background:new 0 0 512 512;" xml:space="preserve">
<g>
	<g>
		<path d="M512,212.432l-29.15-15.724c-14.811,27.456-34.764,45.576-60.821,55.166c-3.536-2.919-7.372-5.986-11.493-9.152    c22.835-16.604,41.27-41.061,54.984-73.035l-30.438-13.056c-13.461,31.382-31.107,52.919-53.769,65.563    c-4.633-2.959-9.281-5.785-13.938-8.486c22.278-19.366,39.752-46.451,50.361-78.61l-31.454-10.376    c-10.446,31.668-28.574,57.021-51.498,72.296c-4.507-2.009-9.014-3.897-13.52-5.658c17.576-19.709,31.151-45.465,39.375-75.337    l-31.933-8.793c-8.564,31.105-23.655,56.441-43.11,72.785c-4.1-1.004-8.191-1.91-12.267-2.697c2.193-3.14,4.185-6.24,5.933-9.136    c9.707-16.089,17.178-34.254,20.496-49.837l-32.395-6.899c-5.179,24.315-22.77,53.314-34.397,61.67    c-0.863-0.011-1.728-0.029-2.589-0.029c-50.154,0-104.092,18.114-155.982,52.382c-38.766,25.602-62.788,51.068-63.791,52.139    L0,288.927l10.602,11.321c1.004,1.071,25.025,26.538,63.791,52.139c51.89,34.269,105.827,52.382,155.982,52.382    c50.154,0,104.092-18.113,155.982-52.382c38.766-25.6,62.788-51.067,63.791-52.139l10.602-11.321l-10.602-11.321    c-0.119-0.127-0.571-0.605-1.319-1.375C475.161,262.817,496.345,241.454,512,212.432z M115.821,338.705    c-31.255-17.352-55.707-37.521-69.257-49.795c13.549-12.306,38.006-32.516,69.317-49.878    c-7.936,15.119-12.386,32.041-12.386,49.896C103.495,306.735,107.923,323.616,115.821,338.705z M230.375,371.647    c-51.699,0-93.759-37.108-93.759-82.72s42.06-82.721,93.759-82.721c51.699,0,93.759,37.109,93.759,82.721    C324.134,334.539,282.073,371.647,230.375,371.647z M344.869,338.823c7.936-15.119,12.386-32.041,12.386-49.896    c0-17.808-4.428-34.689-12.325-49.778c31.251,17.35,55.702,37.517,69.256,49.795C400.637,301.251,376.179,321.461,344.869,338.823    z" fill="#c1b498"/>
	</g>
</g>
<g>
	<g>
		<circle cx="230.379" cy="288.925" r="42.351" fill="#c1b498"/>
	</g>
</g>
<g>
</g>
<g>
</g>
<g>
</g>
<g>
</g>
<g>
</g>
<g>
</g>
<g>
</g>
<g>
</g>
<g>
</g>
<g>
</g>
<g>
</g>
<g>
</g>
<g>
</g>
<g>
</g>
<g>
</g>
</svg>